<svg width="56" height="30" viewBox="0 0 56 30" fill="none" xmlns="http://www.w3.org/2000/svg">
<path d="M13.714 15.0507L22.3858 9.77795C24.4269 8.53758 25.1235 5.78739 23.9464 3.63649C22.7693 1.48559 20.1594 0.751581 18.1182 1.99195L3.1334 11.1066L13.714 15.0507Z" fill="#EA4335" stroke="black" stroke-width="1.66667"/>
<path d="M20.2469 28.6105C21.7194 28.6105 23.1565 27.8022 23.9457 26.3621C25.1228 24.2112 24.4262 21.461 22.385 20.2206L7.40019 11.106C5.35901 9.86564 2.74911 10.5996 1.57202 12.7505C0.394919 14.9014 1.09148 17.6516 3.13267 18.892L18.1175 28.0066C18.792 28.4154 19.5239 28.6105 20.2469 28.6105Z" fill="#4285F4" stroke="black" stroke-width="1.66667"/>
<path d="M35.152 28.611C35.875 28.611 36.6068 28.4159 37.2813 28.0071L52.2662 18.8925L41.8222 14.8648L33.0182 20.2211C30.977 21.4615 30.2761 24.2117 31.4576 26.3626C32.2423 27.8027 33.6795 28.611 35.152 28.611Z" fill="#FBBC04" stroke="black" stroke-width="1.66667"/>
<path d="M50.1289 19.4964C51.6014 19.4964 53.0386 18.6927 53.8277 17.248C55.0048 15.0971 54.3083 12.3469 52.2671 11.1065L37.2822 1.99195C35.241 0.751583 32.6312 1.48559 31.4541 3.63648C30.277 5.78737 30.9735 8.53756 33.0147 9.77793L47.9996 18.8925C48.6697 19.3013 49.4059 19.4964 50.1289 19.4964Z" fill="#34A853" stroke="black" stroke-width="1.66667"/>
</svg>
