<svg width="41" height="44" viewBox="0 0 41 44" fill="none" xmlns="http://www.w3.org/2000/svg">
<path d="M28 42V34C28.2782 31.4946 27.5599 28.9802 26 27C32 27 38 23 38 16C38.16 13.5 37.46 11.04 36 9C36.56 6.7 36.56 4.3 36 2C36 2 34 2 30 5C24.72 4 19.28 4 14 5C10 2 8 2 8 2C7.4 4.3 7.4 6.7 8 9C6.54375 11.0318 5.83694 13.5056 6 16C6 23 12 27 18 27C17.22 27.98 16.64 29.1 16.3 30.3C15.96 31.5 15.86 32.76 16 34M16 34V42M16 34C6.98 38 6 30 2 30" stroke="#545658" stroke-width="4" stroke-linecap="round" stroke-linejoin="round"/>
</svg>
