<svg width="45" height="33" viewBox="0 0 45 33" fill="none" xmlns="http://www.w3.org/2000/svg">
<path d="M3.04787 26.1328C1.65071 19.5393 1.65071 12.7263 3.04787 6.13281C3.23144 5.46323 3.58614 4.85296 4.07708 4.36202C4.56802 3.87109 5.17828 3.51639 5.84787 3.33281C16.5748 1.55573 27.521 1.55573 38.2479 3.33281C38.9174 3.51639 39.5277 3.87109 40.0187 4.36202C40.5096 4.85296 40.8643 5.46323 41.0479 6.13281C42.445 12.7263 42.445 19.5393 41.0479 26.1328C40.8643 26.8024 40.5096 27.4127 40.0187 27.9036C39.5277 28.3945 38.9174 28.7492 38.2479 28.9328C27.521 30.7103 16.5747 30.7103 5.84787 28.9328C5.17828 28.7492 4.56802 28.3945 4.07708 27.9036C3.58614 27.4127 3.23144 26.8024 3.04787 26.1328Z" stroke="#545658" stroke-width="4" stroke-linecap="round" stroke-linejoin="round"/>
<path d="M18.0479 22.1328L28.0479 16.1328L18.0479 10.1328V22.1328Z" stroke="#545658" stroke-width="4" stroke-linecap="round" stroke-linejoin="round"/>
</svg>
